<svg xmlns="http://www.w3.org/2000/svg" width="21" height="21" viewBox="0 0 21 21">
    <g fill="none" fill-rule="nonzero">
        <circle cx="10.5" cy="10.5" r="10.5" fill="#F24841"/>
        <path fill="#FFF" d="M15.72 11.557c-.16-2.108-1.132-3.43-1.99-4.595-.794-1.08-1.48-2.011-1.48-3.386a.295.295 0 0 0-.158-.262.287.287 0 0 0-.303.023c-1.288.93-2.363 2.498-2.738 3.995-.261 1.042-.296 2.213-.3 2.986-1.19-.256-1.46-2.052-1.462-2.072a.296.296 0 0 0-.152-.219.288.288 0 0 0-.264-.004c-.063.03-1.531.783-1.617 3.791-.006.1-.006.2-.006.301 0 2.923 2.355 5.3 5.25 5.3h.015c2.888-.008 5.235-2.383 5.235-5.3 0-.147-.03-.558-.03-.558zm-5.22 5.27c-.965 0-1.75-.845-1.75-1.882 0-.036 0-.072.002-.115.012-.438.094-.737.185-.935.169.367.471.704.963.704a.293.293 0 0 0 .291-.295c0-.419.009-.902.112-1.339.092-.387.312-.799.59-1.129.125.429.366.775.602 1.114.337.484.686.985.748 1.838.003.051.007.102.007.157 0 1.037-.785 1.882-1.75 1.882z"/>
    </g>
</svg>
