<svg xmlns="http://www.w3.org/2000/svg" width="35" height="29" viewBox="0 0 35 29">
    <path fill="#0787CA" fill-rule="evenodd" d="M30.44 13.238c-.685 6.664-5.732 12.14-12.712 12.139-6.95 0-11.975-5.424-12.707-12.053-.272-2.467 3.587-2.44 3.857 0 1.176 10.653 16.613 10.539 17.704-.086.252-2.45 4.11-2.467 3.857 0M15.18 3.21h5.101c.473 0 .86.387.86.86s-.387.86-.86.86h-5.102a.862.862 0 0 1-.859-.86c0-.473.387-.86.86-.86m13.553 1.754h-3.287s-.488-.092-.688-.335c-.2-.244-.17-.73-.17-.73 0-2.144-1.755-3.9-3.899-3.9h-5.917a3.911 3.911 0 0 0-3.9 3.9s.043.6-.2.83c-.216.202-.659.235-.659.235H6.727c-3.218 0-5.85 2.633-5.85 5.85V22.73c0 3.217 2.632 5.849 5.85 5.849h22.005c3.217 0 5.85-2.632 5.85-5.85V10.815c0-3.217-2.633-5.85-5.85-5.85"/>
</svg>
