<svg xmlns="http://www.w3.org/2000/svg" width="162" height="29" viewBox="0 0 162 29">
    <g fill="#0787CA" fill-rule="evenodd">
        <path d="M2.04 9.739h.969V8.518c0-1.27.16-2.281.484-3.03.321-.75.868-1.296 1.637-1.64.77-.341 1.825-.512 3.166-.512 2.372 0 3.559.58 3.559 1.742 0 .378-.125.7-.373.968s-.541.402-.878.402c-.16 0-.432-.03-.82-.09a6.73 6.73 0 0 0-.982-.09c-.736 0-1.206.217-1.415.65-.208.43-.313 1.05-.313 1.853v.968h.998c1.549 0 2.323.467 2.323 1.4 0 .665-.207 1.087-.617 1.266-.412.179-.982.269-1.707.269h-.997V23.44c0 .804-.191 1.417-.574 1.839-.381.422-.875.633-1.48.633a1.857 1.857 0 0 1-1.438-.633c-.382-.422-.573-1.035-.573-1.84V12.675H1.892c-.606 0-1.073-.137-1.4-.411A1.318 1.318 0 0 1 0 11.199c0-.973.68-1.46 2.04-1.46M16.963 11.69v11.751c0 .813-.193 1.43-.581 1.847-.387.417-.878.625-1.474.625s-1.08-.213-1.452-.64c-.372-.428-.558-1.038-.558-1.832V11.81c0-.804.186-1.409.558-1.816.372-.407.856-.612 1.452-.612s1.087.205 1.474.612c.388.407.58.972.58 1.697m-2.01-4.199c-.565 0-1.05-.174-1.451-.522-.403-.347-.603-.839-.603-1.474 0-.576.205-1.05.617-1.422a2.075 2.075 0 0 1 1.438-.559c.526 0 .992.17 1.4.506.406.338.61.83.61 1.475 0 .626-.2 1.115-.596 1.466-.397.353-.868.53-1.414.53M29.98 24.23l-2.95-4.334-3.023 4.334c-.437.605-.806 1.037-1.11 1.296-.302.258-.686.387-1.153.387-.517 0-.956-.162-1.319-.484-.363-.323-.543-.693-.543-1.11 0-.427.278-1.037.834-1.83l3.678-5.274-3.26-4.393c-.567-.725-.85-1.356-.85-1.892 0-.417.17-.779.507-1.087.337-.307.779-.462 1.325-.462.477 0 .872.135 1.183.403.314.268.678.69 1.096 1.265l2.636 3.605 2.562-3.605c.427-.595.797-1.022 1.108-1.28.314-.258.703-.388 1.17-.388.536 0 .98.153 1.332.455.353.303.53.667.53 1.094 0 .31-.072.604-.216.887a6.715 6.715 0 0 1-.664 1.005l-3.26 4.393 3.679 5.273c.575.824.863 1.444.863 1.861 0 .427-.178.794-.536 1.102-.357.308-.8.462-1.326.462-.467 0-.862-.134-1.185-.403-.322-.267-.692-.694-1.108-1.28M83.027 9.739h.447V7.297c0-.656.017-1.17.052-1.541.035-.372.131-.693.291-.961.158-.278.387-.504.685-.678.297-.173.63-.26.997-.26.516 0 .983.194 1.4.58.278.259.454.574.53.947.073.372.111.9.111 1.585v2.77h1.49c.575 0 1.014.137 1.317.41.303.274.454.623.454 1.05 0 .546-.216.929-.648 1.146-.432.219-1.05.329-1.854.329h-.759v7.475c0 .636.022 1.125.067 1.468.044.342.164.62.357.834.194.213.51.319.946.319.238 0 .56-.042.968-.126.407-.084.724-.127.953-.127.327 0 .623.132.886.395.263.264.394.589.394.975 0 .656-.357 1.158-1.072 1.504-.715.348-1.742.522-3.082.522-1.27 0-2.234-.213-2.889-.641A2.971 2.971 0 0 1 83.78 23.5c-.204-.755-.305-1.763-.305-3.024v-7.803h-.536c-.586 0-1.033-.14-1.34-.417a1.367 1.367 0 0 1-.462-1.058c0-.427.161-.776.484-1.05.322-.273.791-.41 1.407-.41M97.637 20.046v3.396c0 .824-.193 1.442-.58 1.853-.388.412-.879.618-1.475.618-.586 0-1.068-.208-1.445-.625-.377-.417-.565-1.033-.565-1.846v-11.32c0-1.826.66-2.74 1.98-2.74.675 0 1.162.214 1.46.64.297.427.461 1.058.491 1.892.487-.834.986-1.465 1.497-1.891.511-.427 1.194-.641 2.048-.641.853 0 1.682.214 2.486.64.805.427 1.207.994 1.207 1.699 0 .496-.17.906-.514 1.228-.342.323-.713.485-1.11.485-.148 0-.508-.092-1.079-.277-.57-.183-1.075-.275-1.512-.275-.596 0-1.082.156-1.459.47-.378.312-.67.776-.879 1.392-.208.615-.352 1.348-.432 2.197a34.25 34.25 0 0 0-.119 3.105M116.209 17.737c-.596.219-1.462.449-2.599.692a62.93 62.93 0 0 0-2.36.537 3.214 3.214 0 0 0-1.251.669c-.397.333-.596.797-.596 1.393 0 .616.233 1.14.7 1.571.466.432 1.077.648 1.832.648.804 0 1.546-.176 2.226-.529.68-.352 1.179-.806 1.497-1.362.367-.616.551-1.629.551-3.038v-.581zm.268 5.883c-.983.764-1.934 1.338-2.852 1.72-.918.381-1.949.573-3.09.573-1.043 0-1.959-.206-2.748-.618-.789-.412-1.397-.97-1.824-1.675a4.35 4.35 0 0 1-.641-2.294c0-1.111.353-2.06 1.058-2.845.704-.784 1.673-1.31 2.904-1.578.258-.06.898-.193 1.921-.402 1.023-.208 1.899-.4 2.629-.574a49.834 49.834 0 0 0 2.375-.632c-.05-1.073-.266-1.86-.648-2.361-.382-.502-1.174-.752-2.375-.752-1.033 0-1.81.144-2.331.432-.521.288-.968.72-1.34 1.296-.373.575-.636.955-.79 1.139-.154.183-.484.275-.99.275a1.73 1.73 0 0 1-1.184-.44 1.427 1.427 0 0 1-.499-1.124c0-.714.253-1.409.76-2.085.506-.674 1.295-1.231 2.368-1.667 1.072-.437 2.407-.656 4.006-.656 1.787 0 3.191.211 4.214.633 1.023.422 1.745 1.09 2.167 2.003.422.914.633 2.125.633 3.634a334.083 334.083 0 0 1-.03 4.646c0 .765.127 1.562.38 2.391s.38 1.362.38 1.6c0 .417-.196.797-.588 1.14a1.972 1.972 0 0 1-1.333.514c-.417 0-.829-.197-1.237-.588-.407-.393-.838-.961-1.295-1.705zM126.44 11.914l3.292 9.233 3.544-9.635c.278-.775.55-1.323.819-1.646.268-.322.675-.484 1.22-.484.518 0 .957.174 1.319.52.363.349.544.75.544 1.207 0 .179-.032.388-.097.626a5.779 5.779 0 0 1-.224.67l-.29.715-3.902 9.68c-.11.279-.25.632-.424 1.058a5.482 5.482 0 0 1-.581 1.095 2.286 2.286 0 0 1-.79.707c-.312.169-.692.253-1.138.253-.577 0-1.036-.132-1.378-.395-.343-.262-.596-.55-.76-.863-.164-.313-.44-.931-.826-1.854l-3.872-9.576c-.09-.24-.182-.477-.276-.715a6.097 6.097 0 0 1-.238-.73 2.586 2.586 0 0 1-.097-.64c0-.28.084-.554.253-.827.169-.273.402-.497.7-.67.298-.173.62-.261.968-.261.675 0 1.139.194 1.393.58.253.389.533 1.039.84 1.952M143.09 16.337h7.372c-.1-1.39-.475-2.43-1.124-3.12-.65-.69-1.507-1.034-2.57-1.034-1.012 0-1.844.349-2.494 1.05-.65.699-1.045 1.734-1.184 3.104m7.953 2.309h-7.953c.01.923.196 1.737.558 2.442.362.705.844 1.236 1.445 1.594a3.819 3.819 0 0 0 1.988.536c.487 0 .931-.057 1.333-.171a4.34 4.34 0 0 0 1.17-.536 8.945 8.945 0 0 0 1.042-.782c.317-.28.73-.656 1.236-1.132.208-.18.506-.27.894-.27.417 0 .754.115 1.012.344.258.228.387.55.387.968 0 .368-.144.797-.432 1.289-.288.49-.722.963-1.303 1.414-.58.452-1.31.827-2.189 1.125-.879.298-1.889.446-3.03.446-2.612 0-4.642-.744-6.092-2.233-1.45-1.49-2.174-3.51-2.174-6.062 0-1.201.178-2.316.536-3.344.357-1.027.88-1.908 1.564-2.643.685-.734 1.53-1.298 2.532-1.69 1.002-.392 2.114-.588 3.336-.588 1.588 0 2.951.335 4.087 1.005 1.137.67 1.99 1.537 2.555 2.599.566 1.063.85 2.145.85 3.246 0 1.023-.294 1.686-.88 1.988-.586.303-1.41.455-2.472.455M157.82 23.441V5.807c0-.813.18-1.429.542-1.846.363-.417.852-.625 1.467-.625.616 0 1.112.206 1.49.618.377.412.565 1.03.565 1.853v17.634c0 .824-.19 1.442-.573 1.854-.382.412-.876.618-1.482.618-.595 0-1.079-.213-1.452-.64-.372-.428-.558-1.038-.558-1.832M70.44 13.238c-.685 6.664-5.732 12.14-12.712 12.139-6.95 0-11.975-5.424-12.707-12.053-.272-2.467 3.587-2.44 3.857 0 1.176 10.653 16.613 10.539 17.704-.086.252-2.45 4.11-2.467 3.857 0M55.18 3.21h5.101c.473 0 .86.387.86.86s-.387.86-.86.86h-5.102a.862.862 0 0 1-.859-.86c0-.473.387-.86.86-.86m13.553 1.754h-3.287s-.488-.092-.688-.335c-.2-.244-.17-.73-.17-.73 0-2.144-1.755-3.9-3.899-3.9h-5.917a3.911 3.911 0 0 0-3.9 3.9s.043.6-.2.83c-.216.202-.659.235-.659.235h-3.285c-3.218 0-5.85 2.633-5.85 5.85V22.73c0 3.217 2.632 5.849 5.85 5.849h22.005c3.217 0 5.85-2.632 5.85-5.85V10.815c0-3.217-2.633-5.85-5.85-5.85"/>
    </g>
</svg>
