<svg xmlns="http://www.w3.org/2000/svg" width="27" height="27" viewBox="0 0 27 27">
    <g fill="none" fill-rule="evenodd" transform="translate(1 1)">
        <circle cx="12.5" cy="12.5" r="12.5" stroke="#28303D"/>
        <path fill="#28303D" fill-rule="nonzero" d="M16.51 13.013c-.428-.422-.962-.422-1.387 0-.324.321-.649.643-.967.97-.088.09-.161.109-.267.049-.21-.115-.434-.207-.635-.333-.94-.59-1.728-1.35-2.425-2.206-.346-.425-.654-.88-.87-1.393-.043-.103-.035-.171.05-.256.324-.313.64-.635.959-.956.444-.447.444-.97-.003-1.42-.253-.256-.507-.506-.76-.762-.262-.262-.52-.526-.785-.785-.427-.417-.961-.417-1.386.003-.327.321-.64.65-.973.967a1.579 1.579 0 0 0-.496 1.065c-.052.679.114 1.319.349 1.943.48 1.291 1.21 2.438 2.095 3.49a12.965 12.965 0 0 0 4.294 3.36c.752.364 1.531.645 2.378.691.583.033 1.09-.114 1.496-.57.278-.31.591-.593.886-.89.436-.442.438-.976.005-1.412-.518-.52-1.038-1.038-1.558-1.555z"/>
    </g>
</svg>
